<svg data-v-0dd9719b="" version="1.0" xmlns="http://www.w3.org/2000/svg" xmlns:xlink="http://www.w3.org/1999/xlink" width="100%" height="100%" viewBox="0 0 340.000000 250.000000" preserveAspectRatio="xMidYMid meet" color-interpolation-filters="sRGB" style="margin: auto;"> <rect data-v-0dd9719b="" x="0" y="0" width="100%" height="100%" fill="#fff" fill-opacity="1" class="background"></rect> <rect data-v-0dd9719b="" x="0" y="0" width="100%" height="100%" fill="url(#watermark)" fill-opacity="1" class="watermarklayer"></rect> <g data-v-0dd9719b="" fill="#3699ea" class="icon-text-wrapper icon-svg-group iconsvg" transform="translate(48.93000030517578,96.67753791814367)"><g class="iconsvg-imagesvg" transform="translate(0,0)"><g><rect fill="#3699ea" fill-opacity="0" stroke-width="2" x="0" y="0" width="60" height="56.644921310763486" class="image-rect"></rect> <svg x="0" y="0" width="60" height="56.644921310763486" filtersec="colorsb3807949441" class="image-svg-svg primary" style="overflow: visible;"><svg xmlns="http://www.w3.org/2000/svg" viewBox="-0.003525275969877839 -0.0038033658638596535 264.3553466796875 249.5738983154297"><g><g fill="#3699ea"><path d="M88.26 14.26a19 19 0 0 0 18.69 5.47l65.67-17a1.38 1.38 0 0 0-.37-2.73L87.36 1a5 5 0 0 0-3.63 8.44zM204.69 14.78a10.81 10.81 0 0 0-14-7l-65.62 23.58a5.34 5.34 0 0 0-.92 9.62l98.48 58.41a4.39 4.39 0 0 0 6.43-5.06zM103 177.28a6.6 6.6 0 0 0 9.88 5.69l99.32-57.07.09-.05a6.62 6.62 0 0 0 .08-11.44L112.1 54.94a6.42 6.42 0 0 0-9.7 5.55zM263.73 136.83a5.62 5.62 0 0 0-5.94-8.11 18.67 18.67 0 0 0-14.57 12.6l-27.67 85.05a.92.92 0 0 0 1.69.7zM258.31 113.62a4.34 4.34 0 0 0 4.7-6.3L217.6 22.4a.76.76 0 0 0-1.39.63L246 103.09a16.74 16.74 0 0 0 12.31 10.53zM75.55 180.29a5.87 5.87 0 0 0 9.24-4.84l-.53-112.18A5.5 5.5 0 0 0 75.34 59L3.2 116.43A8.46 8.46 0 0 0 3.62 130zM2.32 99.68a1.64 1.64 0 0 0 2.53 2l66.77-62a11.35 11.35 0 0 0 .6-16l-7.49-8.08A8.45 8.45 0 0 0 51.25 17zM107.85 219.33a15.23 15.23 0 0 0-17.45 5.08l-10.09 13.38a5.83 5.83 0 0 0 4.51 9.35l93.49 2.43a1.9 1.9 0 0 0 .71-3.67zM226.49 147.65a4.73 4.73 0 0 0-6.94-5.3l-95.85 55.31a5.83 5.83 0 0 0 .5 10.36l66.92 30.4a9.55 9.55 0 0 0 13.2-6.28zM74.21 215.48a11.75 11.75 0 0 0-2.06-16.19L6 146.19a2.07 2.07 0 0 0-3.08 2.67l47.64 80.84a7.54 7.54 0 0 0 12.54.68z"></path></g></g></svg></svg> <!----></g></g> <g transform="translate(67,0.18121337890625)"><g data-gra="path-name" fill-rule="" class="tp-name iconsvg-namesvg" transform="translate(0,0)"><g transform="scale(1)"><g><path d="M24.97-27.58L43.02-27.58 43.02-25.33Q43.02-25.06 42.82-24.86 42.61-24.66 42.34-24.66L42.34-24.66 24.97-24.66 24.97-22.23 38.25-22.23 38.25-12.69Q38.25-10.39 37.1-9.4 35.95-8.41 33.52-8.41L33.52-8.41 24.97-8.41 24.97-5.54 39.42-5.54 39.42-3.28Q39.42-3.01 39.22-2.81 39.02-2.61 38.74-2.61L38.74-2.61 24.97-2.61 24.97 0 42.43 0 42.43 2.25Q42.43 2.52 42.23 2.72 42.03 2.92 41.76 2.92L41.76 2.92 2.79 2.92 2.79 0 20.02 0 20.02-2.61 5.8-2.61 5.8-5.54 20.02-5.54 20.02-8.41 6.88-8.41 6.88-22.23 20.02-22.23 20.02-24.66 2.02-24.66 2.02-27.58 20.02-27.58 20.02-31.36 5.8-31.36 5.8-34.29 32.67-34.29Q34.56-34.29 38.7-35.28L38.7-35.28 38.7-32.76Q38.7-32.53 38.56-32.35 38.43-32.17 38.25-32.13L38.25-32.13Q37.3-31.81 35.95-31.59 34.6-31.36 33.8-31.36L33.8-31.36 24.97-31.36 24.97-27.58ZM11.83-19.3L11.83-16.65 20.02-16.65 20.02-19.3 11.83-19.3ZM33.3-19.3L24.97-19.3 24.97-16.65 33.3-16.65 33.3-19.3ZM11.83-11.34L20.02-11.34 20.02-13.72 11.83-13.72 11.83-11.34ZM31.72-11.34Q33.3-11.34 33.3-12.91L33.3-12.91 33.3-13.72 24.97-13.72 24.97-11.34 31.72-11.34ZM73.62-30.24L88.02-30.24 88.02-27.99Q88.02-27.72 87.82-27.52 87.61-27.31 87.34-27.31L87.34-27.31 56.79-27.31 56.79-19.26Q56.79-8.87 54.31-3.49 51.84 1.89 47.07 4.23L47.07 4.23 47.07 0.85Q49.55-1.35 50.69-6.64 51.84-11.92 51.84-19.35L51.84-19.35 51.84-30.24 69.25-30.24Q67-33.8 64.75-36.23L64.75-36.23 70.16-36.23Q71.14-34.96 71.91-33.57 72.67-32.17 73.62-30.24L73.62-30.24ZM73.08-15.52Q73.66-10.8 76.03-7.2 78.39-3.6 81.5-1.4 84.6 0.81 87.48 1.75L87.48 1.75 87.48 4.68Q85.45 4.37 82.22 2.83 78.97 1.3 75.71-1.33 72.45-3.96 70.42-7.42L70.42-7.42Q68.4-3.96 65.14-1.33 61.88 1.3 58.63 2.83 55.39 4.37 53.37 4.68L53.37 4.68 53.37 1.75Q56.25 0.81 59.35-1.4 62.46-3.6 64.82-7.2 67.19-10.8 67.77-15.52L67.77-15.52 57.24-15.52 57.24-18.45 67.95-18.45 67.95-25.56 72.9-25.56 72.9-18.45 86.09-18.45 86.09-16.2Q86.09-15.93 85.88-15.73 85.68-15.52 85.41-15.52L85.41-15.52 73.08-15.52ZM97.52-24.97Q97.38-24.84 97.16-24.84L97.16-24.84 92.88-24.84 92.88-32.58 110.56-32.58Q109.03-34.6 107.55-36.23L107.55-36.23 113.4-36.23Q114.7-33.8 115.11-32.58L115.11-32.58 132.3-32.58 132.3-25.52Q132.3-25.24 132.1-25.04 131.89-24.84 131.63-24.84L131.63-24.84 127.62-24.84 127.62-22.72Q127.62-20.47 126.52-19.71 125.41-18.95 122.89-18.95L122.89-18.95 101.52-18.95 101.39-18.95 97.56-18.95 97.52-24.97ZM127.35-29.65L97.83-29.65 97.83-27.36 127.35-27.36 127.35-29.65ZM102.02-21.87L106.25-21.87 106.25-24.43 102.02-24.43 102.02-21.87ZM110.75-24.43L110.75-21.87 114.21-21.87 114.21-24.43 110.75-24.43ZM121.55-21.87Q123.12-21.87 123.12-23.45L123.12-23.45 123.12-24.43 118.71-24.43 118.71-21.87 121.55-21.87ZM132.25-15.39Q132.25-15.12 132.05-14.92 131.85-14.71 131.58-14.71L131.58-14.71 92.52-14.71 92.52-17.64 132.25-17.64 132.25-15.39ZM109.84-4.32Q108.36-3.42 106.34-2.48L106.34-2.48 106.34 0.85Q108.63 0.72 110.43 0.43 112.23 0.14 114.21-0.4L114.21-0.4 114.21 1.89Q111.91 3.55 106.38 4.68L106.38 4.68 106.34 4.63 106.34 4.68 101.83 4.68 101.83-0.63Q98.86 0.45 96.12 1.21 93.38 1.98 92.07 2.16L92.07 2.16 92.07-0.77Q94.72-1.3 98.69-2.88 102.64-4.46 105.48-6.3L105.48-6.3 96.66-6.3 96.66-13.59 128.61-13.59 128.61-10.35Q128.61-8.05 127.48-7.18 126.36-6.3 123.88-6.3L123.88-6.3 114.21-6.3Q115.78-3.73 120.42-1.84L120.42-1.84Q123.84-3.24 125.32-5.63L125.32-5.63 130.28-5.63Q128.47-2.65 124.2-0.54L124.2-0.54Q128.25 0.58 132.93 1.3L132.93 1.3 132.93 4.23Q126 3.55 119.56 1.51 113.13-0.54 109.84-4.32L109.84-4.32ZM101.61-11.12L101.61-8.78 122.09-8.78Q123.66-8.78 123.66-10.35L123.66-10.35 123.66-11.12 101.61-11.12ZM144.45-23.36Q144.45-23.09 144.25-22.88 144.04-22.68 143.78-22.68L143.78-22.68 139.5-22.68 139.5-30.91 156.87-30.91Q155.12-33.48 152.59-36.23L152.59-36.23 158-36.23Q159.44-34.34 161.06-30.91L161.06-30.91 175.5-30.91 175.5-23.36Q175.5-23.09 175.3-22.88 175.09-22.68 174.82-22.68L174.82-22.68 170.55-22.68 170.55-27.99 144.45-27.99 144.45-23.36ZM160.74-11.65L177.16-11.65 177.16-9.4Q177.16-9.13 176.96-8.93 176.76-8.73 176.49-8.73L176.49-8.73 160.74-8.73 160.74-0.77Q160.74 3.96 156.01 3.96L156.01 3.96 147.42 3.96 147.42 1.03 154.22 1.03Q155.79 1.03 155.79-0.54L155.79-0.54 155.79-8.73 137.88-8.73 137.88-11.65 155.79-11.65 155.79-18.72 142.43-18.72 142.43-21.64 172.57-21.64 172.57-19.39Q172.57-19.13 172.37-18.92 172.17-18.72 171.9-18.72L171.9-18.72 160.74-18.72 160.74-11.65Z" transform="translate(-2.0199999809265137, 36.22999954223633)"></path></g> <!----> <!----> <!----> <!----> <!----> <!----> <!----></g></g> <g data-gra="path-slogan" fill-rule="" class="tp-slogan iconsvg-slogansvg" fill="#3699ea" transform="translate(5,46.90999984741211)"><rect x="0" height="1" y="4.185000419616699" width="15.819995880126953"></rect> <rect height="1" y="4.185000419616699" width="15.819995880126953" x="149.32000350952148"></rect> <g transform="translate(18.819995880126953,0)"><g transform="scale(1)"><path d="M8.06-6.05L8.06-6.05L6.94-6.05Q6.52-7.78 4.55-7.83L4.55-7.83Q1.83-7.69 1.73-4.36L1.73-4.36Q1.73-0.80 4.59-0.80L4.59-0.80Q6.56-0.84 7.03-3.19L7.03-3.19L8.16-3.19Q7.64 0.05 4.36 0.14L4.36 0.14Q0.61 0 0.52-4.31L0.52-4.31Q0.70-8.63 4.55-8.81L4.55-8.81Q7.59-8.72 8.06-6.05ZM10.69-5.06L15.19-5.06L15.19-8.58L16.36-8.58L16.36 0L15.19 0L15.19-3.98L10.69-3.98L10.69 0L9.52 0L9.52-8.58L10.69-8.58L10.69-5.06ZM24.94-4.27L24.94-4.27Q24.75-7.64 21.94-7.83L21.94-7.83Q19.08-7.69 18.94-4.27L18.94-4.27Q19.08-0.94 21.94-0.80L21.94-0.80Q24.75-0.98 24.94-4.27ZM26.11-4.27L26.11-4.27Q25.83 0 21.94 0.14L21.94 0.14Q18 0 17.72-4.27L17.72-4.27Q17.95-8.72 21.94-8.81L21.94-8.81Q25.83-8.67 26.11-4.27ZM28.88-8.58L33.19-1.64L33.19-8.58L34.31-8.58L34.31 0L33 0L28.64-6.94L28.59-6.94L28.59 0L27.47 0L27.47-8.58L28.88-8.58ZM42.52-3.61L39.89-3.61L39.89-4.59L43.64-4.59L43.64 0L42.89 0L42.61-1.08Q41.63 0.09 39.80 0.14L39.80 0.14Q38.06 0.14 37.13-0.75L37.13-0.75Q35.72-2.06 35.77-4.36L35.77-4.36Q36.09-8.63 39.84-8.81L39.84-8.81Q43.03-8.63 43.50-6L43.50-6L42.38-6Q41.91-7.78 39.80-7.83L39.80-7.83Q37.13-7.64 36.98-4.31L36.98-4.31Q36.98-0.75 39.84-0.75L39.84-0.75Q40.88-0.75 41.63-1.31L41.63-1.31Q42.56-2.06 42.52-3.61L42.52-3.61ZM50.44-1.08L49.55-1.78L50.16-2.48L51.23-1.64Q52.22-2.63 52.22-4.27L52.22-4.27Q52.03-7.64 49.22-7.83L49.22-7.83Q46.36-7.69 46.22-4.27L46.22-4.27Q46.36-0.94 49.22-0.80L49.22-0.80Q49.92-0.80 50.44-1.08L50.44-1.08ZM52.17-0.94L53.30-0.05L52.73 0.56L51.42-0.33Q50.58 0.14 49.22 0.14L49.22 0.14Q45.28 0 45-4.27L45-4.27Q45.23-8.72 49.22-8.81L49.22-8.81Q53.11-8.67 53.39-4.27L53.39-4.27Q53.34-2.20 52.17-0.94L52.17-0.94ZM54.94-8.58L56.11-8.58L56.11 0L54.94 0L54.94-8.58ZM59.48-8.58L63.80-1.64L63.80-8.58L64.92-8.58L64.92 0L63.61 0L59.25-6.94L59.20-6.94L59.20 0L58.08 0L58.08-8.58L59.48-8.58ZM73.13-3.61L70.50-3.61L70.50-4.59L74.25-4.59L74.25 0L73.50 0L73.22-1.08Q72.23 0.09 70.41 0.14L70.41 0.14Q68.67 0.14 67.73-0.75L67.73-0.75Q66.33-2.06 66.38-4.36L66.38-4.36Q66.70-8.63 70.45-8.81L70.45-8.81Q73.64-8.63 74.11-6L74.11-6L72.98-6Q72.52-7.78 70.41-7.83L70.41-7.83Q67.73-7.64 67.59-4.31L67.59-4.31Q67.59-0.75 70.45-0.75L70.45-0.75Q71.48-0.75 72.23-1.31L72.23-1.31Q73.17-2.06 73.13-3.61L73.13-3.61ZM80.53-5.06L85.03-5.06L85.03-8.58L86.20-8.58L86.20 0L85.03 0L85.03-3.98L80.53-3.98L80.53 0L79.36 0L79.36-8.58L80.53-8.58L80.53-5.06ZM93.66-3.19L93.66-8.58L94.83-8.58L94.83-3.05Q94.69 0.05 91.31 0.14L91.31 0.14Q88.17 0.05 88.03-2.86L88.03-2.86L88.03-8.58L89.20-8.58L89.20-3.19Q89.25-0.84 91.36-0.80L91.36-0.80Q93.66-0.84 93.66-3.19L93.66-3.19ZM102.28 0L101.44-2.48L97.97-2.48L97.08 0L95.91 0L99.14-8.58L100.45-8.58L103.55 0L102.28 0ZM99.70-7.31L98.34-3.52L101.02-3.52L99.75-7.31L99.70-7.31ZM105.98-8.58L110.30-1.64L110.30-8.58L111.42-8.58L111.42 0L110.11 0L105.75-6.94L105.70-6.94L105.70 0L104.58 0L104.58-8.58L105.98-8.58ZM120.14-8.58L116.91-3.47L116.91 0L115.73 0L115.73-3.47L112.50-8.58L113.86-8.58L116.30-4.45L118.78-8.58L120.14-8.58ZM126.84-3.19L126.84-8.58L128.02-8.58L128.02-3.05Q127.88 0.05 124.50 0.14L124.50 0.14Q121.36 0.05 121.22-2.86L121.22-2.86L121.22-8.58L122.39-8.58L122.39-3.19Q122.44-0.84 124.55-0.80L124.55-0.80Q126.84-0.84 126.84-3.19L126.84-3.19Z" transform="translate(-0.515625, 8.8125)"></path></g></g></g></g></g><defs v-gra="od"></defs></svg>